<?xml version="1.0" encoding="utf-8"?>
<!-- Generator: Adobe Illustrator 19.0.0, SVG Export Plug-In . SVG Version: 6.00 Build 0)  -->
<svg version="1.1" id="Layer_1" xmlns="http://www.w3.org/2000/svg" xmlns:xlink="http://www.w3.org/1999/xlink" x="0px" y="0px"
	 viewBox="0 0 612 792" style="enable-background:new 0 0 612 792;" xml:space="preserve">
<style type="text/css">
	.st0{fill:#EF99AA;}
	.st1{fill:#FAD5D1;}
	.st2{fill:#FFFFFF;}
	.st3{fill:#ED7DAA;}
	.st4{fill:#EC7DA8;}
	.st5{fill:#FFFFFC;}
	.st6{fill:#EF98A9;}
	.st7{fill:#040404;}
	.st8{fill:#F6A6BA;}
	.st9{fill:#F6A5B6;}
</style>
<g>
	<path class="st0" d="M292.7,228.4c1.8-3.6,4.1-6.9,6.7-10c3.9-4.2,10-10.7,13.2,2.7c2.6,8,5.2,16,7.7,24c0.6,1.7,1.2,3.5,2.5,4.7
		c1.4,1.1,3.2,1.4,4.9,1.7c16.6,2.8,32.5,9.5,46.2,19.2c7.2-9.1,16.5-16.7,26.9-21.8c7.7-3.8,18.2-6,24.2,0.3
		c2.7,2.8,3.8,6.7,4.4,10.5c3,18.2-4.5,37.7-18.8,49.3c0,0,12.1,23.2,13,25.4c4,8.9,7.4,18,10.4,27.3c5.9,18.5,9.8,37.7,11.7,57.1
		c1.9,19.4,1.7,38.9-0.5,58.3c-1.1,9.7-2.8,19.3-4.9,28.7c-1.9,8.4-3.4,19.9-8.1,27.3c-2.8,4.4-6.8,8.8-10.2,12.7
		c-4.2,4.9-8.9,9.2-14.1,13.1c-10.3,7.8-22.1,13.6-34.4,17.5c-22.9,7.3-47.3,8.5-71.3,8.5c-36.4,0-75.8-4.1-102.8-28.5
		c-15.2-13.8-24.9-32.9-29.9-52.8c-5.1-19.9-5.8-40.6-5.4-61.1c1-45.3,8.3-91.9,32.1-130.4c-15.7-11.1-23.6-32.2-19.2-50.9
		c0.9-3.6,2.2-7.3,5.1-9.7c4.8-4,11.8-3,17.7-1c12.5,4.1,23.9,11.8,32.4,21.9c13.9-11,30.7-18.2,48.2-20.9c1.8-0.3,3.7-0.5,5-1.8
		c1.4-1.4,1.7-3.5,2.1-5.5C288.4,238.6,290.1,233.3,292.7,228.4z"/>
	<path class="st1" d="M285.6,280.7c0,0.1,0.1,0.3,0.1,0.4c0.8,2.1,2.9,3.6,4.9,4.6c8.7,4.4,19.7,3.8,28-1.5c1.5-0.9,2.9-2.1,3.5-3.8
		c0.5-1.5,0.3-3.1,0-4.6c-1-6.4-2.1-12.8-3.1-19.2c20.5,2.1,40.4,10.2,56.6,22.9c7.3-12,18.7-21.4,31.9-26.4
		c3.1-1.2,6.4-2.1,9.6-1.2c3.2,0.9,5.9,4.1,5.1,7.3c-2.9-3-7.9-2.5-11.9-1.3c-13,4-24.1,13.4-30.3,25.4
		c38.9,34,54.4,87.8,59.5,139.2c2,19.7,2.6,39.6,0.2,59.3c-1.2,9.8-3.2,19.4-6.1,28.8c-1.5,4.7-3.2,9.3-5.2,13.8
		c-2.1,4.6-5,8.3-8,12.4c-0.9,1.3-1.8,2.5-2.7,3.8c-3.1-29.7-22.4-56.6-48.1-71.8c-25.7-15.2-57.2-19.3-86.6-14.3
		c-17.5,3-34.6,9.1-49,19.5c-22.1,15.9-36.6,41.8-38.7,69c-22.2-27.9-25.9-66-24.9-101.7c0.8-28.6,3.9-57.3,12.6-84.6
		s23-53.1,43.8-72.8c-6.6-11.6-17.8-20.4-30.5-24.1c-5.1-1.5-12.7-0.4-12.6,4.9c-2-3.2,0.5-7.7,4-9c3.5-1.3,7.5-0.4,11,0.9
		c12.8,4.6,24.1,13.4,31.7,24.7c16.2-13.4,36.3-22.1,57.2-24.6c-0.7,6.3-1.5,12.7-2.2,19C285.3,277.4,285.2,279.1,285.6,280.7z"/>
	<path class="st2" d="M304.7,579.3c-8.4,0-16.8-0.3-25.1-1c-27.3-2.2-55.6-8.8-76.2-26.8c-1.1-1-2.3-2.1-2.8-3.5
		c-0.6-1.4-0.5-2.9-0.4-4.4c1.6-27.2,16.5-53.2,39.1-68.4c13.9-9.3,30.2-14.5,46.7-16.9c29-4.3,59.8,0,84.6,15.5
		c15.6,9.8,28.4,24.3,35.8,41.2c3.7,8.4,6.1,17.4,6.7,26.6c0.2,2.4,0.7,4.3-1.2,6c-1.7,1.7-3.6,3.3-5.5,4.8c-3.8,3-7.8,5.7-11.9,8.1
		c-17,9.7-36.5,14.3-55.7,16.7c-1.4,0.2-2.7,0.3-4.1,0.5C324.8,578.7,314.8,579.3,304.7,579.3z"/>
	<path class="st2" d="M422.6,272.3c0,1.1,0,2.2-0.1,3.3c-0.3,4.6-1.1,9.3-2.8,13.6c-1.5,3.7-3.6,7.1-6.5,9.8
		c-2.5,2.4-5.5,4.3-8.5,5.9c-0.5,0.3-1.1,0.5-1.6,0.4c-0.7-0.1-1.2-0.8-1.6-1.3c-5.4-7.5-11.7-14.4-18.7-20.4
		c-0.2-0.2-0.4-0.4-0.5-0.7c-0.1-0.3,0.1-0.7,0.3-0.9c3.8-5.8,8.4-11.1,14-15.2s12.1-7.1,18.9-8c1.3-0.2,2.8-0.2,3.8,0.6
		c0.6,0.5,1,1.2,1.4,2C422.2,264.7,422.7,268.5,422.6,272.3z"/>
	<path class="st2" d="M184.6,272.8c0.1-2.3,0.3-4.6,0.7-6.9c0.2-1.5,0.6-3.2,1.8-4.1c0.8-0.6,1.8-0.8,2.8-0.9c2.3-0.1,4.5,0.4,6.7,1
		c10.9,3.2,20.5,10.3,27,19.6c0.5,0.7,1,1.7,0.9,2.5c-0.1,1-1.1,1.7-1.8,2.3c-1.7,1.6-3.4,3.3-5,5c-3.2,3.4-6.3,7-9.1,10.8
		c-0.9,1.2-1.8,2.5-2.7,3.8c-0.3,0.5-0.7,1-1.3,1.1c-0.5,0.1-0.9-0.1-1.3-0.3c-6.7-3.3-12.3-8.9-15.4-15.6
		C185.2,285.4,184.4,279.1,184.6,272.8z"/>
	<path class="st3" d="M287.7,278.2c0.3-3.7,0.9-7.4,1.7-11.1c0.1-0.4,0.2-0.8,0.4-1.1c0.5-0.7,1.4-0.8,2.2-0.8
		c8.6-0.8,16.7-5.3,21.9-12.2c0.3-0.4,0.8-0.8,1.2-0.5c0.1,0.1,0.2,0.3,0.2,0.5c1,5.1,1.9,10.2,2.9,15.3c0.2,1.2,0.4,2.5-0.5,3.4
		c-1,1-2.1,1.9-3.2,2.7c-2.2,1.8-4.6,3.4-7.1,4.7c-3.5,1.9-7.3,3.3-11.3,3.8c-2,0.2-4.1,0.3-5.9-0.5c-1-0.4-2.1-1.1-2.4-2.2
		C287.6,279.7,287.7,278.9,287.7,278.2C287.7,278.2,287.7,278.2,287.7,278.2z"/>
	<path class="st2" d="M310.8,234.8c1,1.2,1.1,2.9,1.4,4.4c0.6,2.9,1.9,5.8,1.5,8.8c-0.4,2.7-2.2,5-4.1,7c-2,2.1-4.2,3.9-6.8,5.2
		c-0.7,0.3-1.4,0.6-2.1,0.9c-2.9,1.2-5.9,1.9-9,2.5c-0.4,0.1-0.9,0.2-1.3-0.1c-0.3-0.3-0.3-0.8-0.2-1.3c0.6-3.9,1.2-7.8,1.9-11.6
		c0.1-0.6,0.2-1.2,0.5-1.8c0.5-0.8,1.4-1.2,2.2-1.6c3.1-1.4,6.3-2.8,9.1-4.8C306.8,240.4,309.3,237.9,310.8,234.8
		C310.7,234.8,310.8,234.8,310.8,234.8z"/>
	<path class="st4" d="M309.7,231.4c0,0.7-0.2,1.3-0.5,1.9c-2.5,5.3-7.7,8.8-12.8,11.1c-0.6,0.3-1.2,0.5-1.8,0.8
		c-0.2,0.1-0.5,0.2-0.7,0.1c-0.5-0.2-0.4-0.8-0.3-1.3c0.5-1.8,1.1-3.6,1.6-5.4c1.1-3.7,2.2-7.4,4.5-10.5c1-1.3,2.4-2.6,4-2.7
		c1.1-0.1,2.2,0.4,3,1.1c0.8,0.7,1.5,1.6,2.1,2.5C309.3,229.8,309.7,230.6,309.7,231.4C309.7,231.4,309.7,231.4,309.7,231.4z"/>
	<path class="st5" d="M319.8,278.4c0,0.3,0,0.6,0,1c-0.2,1.3-1.6,2.1-2.6,2.7c-1.2,0.8-2.4,1.4-3.6,2c-2.5,1.1-5.2,1.8-8,2.1
		c-2.6,0.3-5.2,0.1-7.7-0.4c-0.4-0.1-0.9-0.3-0.9-0.7c0-0.3,0.4-0.5,0.7-0.6c1-0.3,2.1-0.5,3.2-0.7c6.3-1.3,12.2-4.7,16.5-9.5
		c0.2-0.2,0.4-0.5,0.7-0.6s0.7-0.2,0.9,0c0.2,0.2,0.3,0.5,0.3,0.8c0.2,1.1,0.3,2.2,0.5,3.3C319.7,278,319.8,278.2,319.8,278.4z"/>
	<path class="st6" d="M304.7,429.6c-0.7,0-1.4,0-2.1,0c-8.3-0.1-16.6-1.5-24.1-5s-14-9.4-17.5-16.9c-4.3-9.4-3.2-21.1,2.8-29.5
		c6.1-8.6,16.4-13.4,26.8-15.6c10.7-2.2,22-1.9,32.6,0.9c7.7,2,15.2,5.4,20.5,11.3c4.5,5,7.3,11.6,7.6,18.3
		c0.5,11.7-6.1,21.6-15.6,27.9c-3,2-6.2,3.6-9.6,4.9C319.4,428.4,312,429.5,304.7,429.6z"/>
	<path class="st7" d="M263.4,371.7c0.4,7.6-6.4,14.7-14.5,13.5c-4.7-0.7-8.8-4.3-10.1-8.9c-0.2-0.8-0.4-1.5-0.9-2.2
		c-0.6-0.7-1.6-1.1-2.4-1.5c-1.2-0.7-2.1-1.7-2.6-3c-0.2-0.4-0.2-1,0.2-1.2c0.2-0.1,0.5,0,0.8,0.1c1,0.5,1.9,0.9,2.9,1.4
		c0.2,0.1,0.5,0.2,0.8,0.2s0.6-0.2,0.6-0.4c0.1-0.4-0.4-0.7-0.7-0.9c-1.8-1-3.2-2.8-3.5-4.9c0-0.3,0-0.6,0.2-0.8
		c0.2-0.1,0.4-0.1,0.6,0c1,0.3,1.9,0.9,2.9,1.4c1,0.5,2.1,0.7,3.1,0.2c0.5-0.3,0.9-0.7,1.3-1.1c2.9-3,7.4-4.4,11.4-3.5
		c4.1,0.8,7.7,3.8,9.2,7.6C263,369.1,263.3,370.4,263.4,371.7z"/>
	<path class="st7" d="M376,366.2c0.1,0,0.1,0.1,0.2,0.2c0.1,0.2,0.1,0.4,0,0.6c-0.4,1.4-1.3,2.6-2.5,3.3c-1,0.6-2.2,1-2.7,2
		c-0.2,0.5-0.2,1-0.3,1.5c-0.9,7.3-9.5,11.4-16,9.2c-4.7-1.5-8.3-6.1-8.7-11c-0.4-4.9,2.5-10,6.9-12.2s10.2-1.5,13.9,1.7
		c0.7,0.6,1.4,1.3,2.3,1.4c0.8,0.1,1.7-0.2,2.5-0.6c0.9-0.4,1.7-0.8,2.6-1.2c0.2-0.1,0.4-0.2,0.6-0.1c0.6,0.1,0.6,0.9,0.4,1.5
		c-0.6,1.7-1.8,3.3-3.4,4.2c-0.4,0.2-0.8,0.6-0.6,0.9c0.1,0.2,0.5,0.2,0.7,0.2c1.1-0.1,2.1-0.6,3-1.2c0.2-0.2,0.4-0.4,0.7-0.4
		C375.6,366.1,375.8,366.1,376,366.2z"/>
	<path class="st2" d="M306.2,363.4c6.7-0.1,13.5,0.7,19.8,3.1c9,3.4,17.1,10.1,20.7,19.1c1.9,4.7,2.4,9.9,1.5,14.8
		c-0.9,5-3.4,9.2-6.6,13c-3.2,3.8-8.1,6.8-12.6,8.9c-4.7,2.2-9.8,3.7-14.9,4.5c-5.4,0.8-11,0.9-16.5,0.3c-9.2-1-18.4-4-25.6-9.9
		c-7.1-5.9-11.9-15.1-11-24.4c0.8-8.3,6.1-15.7,13-20.5c6.9-4.8,15.1-7.1,23.4-8.2C300.3,363.7,303.3,363.5,306.2,363.4z"/>
	<path class="st8" d="M280,394.3c0-0.3,0-0.5,0-0.8c0.1-2,0.7-4.2,2.4-5.2c1.5-0.9,3.6-0.4,4.9,0.8c1.3,1.2,1.8,3.1,1.7,4.8
		c-0.1,2.7-1.6,7.5-5.3,6.6c-1.4-0.3-2.6-1.5-3.1-2.8C280.1,396.7,280,395.5,280,394.3z"/>
	<path class="st9" d="M328.5,393.9c-0.2,3.3-1.5,7.7-5.2,6c-1.2-0.6-2.1-1.8-2.6-3.1c-1-2.5-0.8-5.4,0.5-7.8c0.4-0.8,1.1-1.7,1.9-2
		c1.3-0.5,2.8,0,3.7,1s1.4,2.4,1.6,3.7C328.6,392.3,328.6,393.1,328.5,393.9z"/>
</g>
</svg>
