<?xml version="1.0" encoding="utf-8"?>
<!-- Generator: Adobe Illustrator 19.0.0, SVG Export Plug-In . SVG Version: 6.00 Build 0)  -->
<svg version="1.1" id="Layer_1" xmlns="http://www.w3.org/2000/svg" xmlns:xlink="http://www.w3.org/1999/xlink" x="0px" y="0px"
	 viewBox="0 0 612 792" style="enable-background:new 0 0 612 792;" xml:space="preserve">
<style type="text/css">
	.st0{fill:#13A1A6;}
	.st1{fill:#FFFFFF;}
	.st2{fill:#7BC6CA;}
	.st3{fill:#020303;}
	.st4{fill:#030303;}
	.st5{fill:#F297B5;}
	.st6{fill:#A0D2DE;}
	.st7{fill:#A0D3DD;}
	.st8{fill:#9FD2DD;}
	.st9{fill:#A0D4DF;}
	.st10{fill:#A0D4DE;}
	.st11{fill:#9FD3DE;}
	.st12{fill:#9FD3DF;}
	.st13{fill:#A3D4DF;}
</style>
<g>
	<path class="st0" d="M153.9,422c0.7-16.2,2.2-32.3,4.7-48.3c4.3-26.8,12.5-53.2,24.6-77.5c0.2-0.5,0.5-1,0.5-1.6c0-0.7-0.5-1.4-1-2
		c-7-9-7.8-21.7-2.8-31.8c0.4-0.8,0.9-1.7,1-2.6c0.1-1.3-0.4-2.6-0.9-3.8c-4.4-11.3-0.1-31.7,14.8-32.9c2.3-0.2,4.5,0.5,6.7,1.2
		c10.5,3.4,19.7,9.2,29.9,13.5c0.8,0.3,1.6,0.7,2.3,1.1c0.8,0.4,1.4,0.6,2.2-0.1c0.3-0.3,0.8-0.5,1.1-0.8c2.9-2.3,6.2-3.8,9.4-5.4
		c36.7-19,83.4-18.3,119.8,0.9c3.5,1.8,6.2,5.3,10.4,5c2.6-0.2,4.9-1.4,7.2-2.6c8-4.1,15.9-8.3,24.4-11.2c8-2.7,12.8-1.7,18.3,4.9
		c4.4,5.4,6.8,12.6,5.8,19.5c-0.5,3.9-2,7.7-1.6,11.6c0.3,3.1,1.8,5.9,2.7,8.8c1.4,4.9,1.2,10.2-0.5,15c-1.7,4.7-5,8.9-4.3,14.2
		c0.4,3.2,2.2,6,3.8,8.8c12.8,22,17.1,47.5,21,72.3c4.3,27.1,5.5,55,3.4,82.4c-1.9,24.5-7.5,49.6-22.3,69.7
		c-25.3,34.4-68,45.9-108.8,47.8c-12.6,0.6-25.2,0.3-37.7-0.5c-22.1-1.4-44.5-3.5-65.2-11.8c0,0-0.1,0-0.1-0.1
		c-49.1-19.7-67.7-68.4-69-118.1C153.4,439.3,153.5,430.6,153.9,422z"/>
	<path class="st0" d="M187,223.6c-0.1,0.1-0.1,0.3-0.2,0.5c0,0.1-0.2,0.1-0.3,0.1c0,0-0.1-0.1-0.1-0.1c-0.1-0.3,0.1-0.5,0.2-0.7
		c0,0,0.1-0.1,0.2,0C186.8,223.4,186.9,223.5,187,223.6z"/>
	<path class="st1" d="M255.2,302.3c22.2,0,43.8,15.4,50.8,36.5c7.8-21.7,30.6-37.1,53.6-36c23,1.1,44.3,18.6,49.6,41.1
		s-6.1,47.8-26.4,58.6c0.8-0.4,8.6,10.7,9.4,11.8c2.9,4.2,5.6,8.6,8,13.1c4.8,9.1,8.6,18.7,11.2,28.7c5.3,19.9,6.2,41,2.4,61.2
		c-1,5-2.2,10-3.8,14.9c-1.4,4.4-2.8,10.4-5.6,14.1c-6.4,8.3-15.4,12.9-25.3,15.8c-1,0.3-2.1,0.6-3.1,0.9
		c-45.5,12.1-94.2,12.2-139.8,0.2c-8-2.1-16.2-4.7-22.7-10c-9.3-7.5-13.8-19.4-16.4-31.1c-9.2-42,2.8-88,31.4-120.1
		c-19.9-11.5-30.6-36.8-25.1-59.1c5.5-22.3,26.8-39.6,49.8-40.6C253.9,302.3,254.5,302.3,255.2,302.3z"/>
	<path class="st2" d="M221.7,403.1c0,0,0.1,0.1,0.1,0.1c-33.2,38.9-41.6,97.4-20.6,144.1c-18.8-14.9-30.6-37.4-36.2-60.8
		c-5.6-23.4-5.5-47.7-4-71.7c2.7-42,10.2-84.9,31.4-121.3c-7.2-5.8-10.5-16-7.9-24.9c0.8-3,2.3-5.8,2.8-8.8c1.4-8.6-4.9-18.4,0-25.6
		c4.2-6.3,13.8-5.7,20.5-2.3c6.7,3.4,12.6,8.8,19.9,10.4c10.5,2.3,20.7-3.7,30.5-8.2c30.2-13.8,66.5-13.5,96.4,0.8
		c8.4,4,17.2,9.3,26.5,7.9c8-1.2,14.3-7,21.5-10.7c7.2-3.7,17.6-4.4,21.8,2.5c4.7,7.6-1.9,17.5-0.2,26.2c0.5,2.8,1.9,5.3,2.7,8
		c2,6.5,0.5,14-3.8,19.3c-1.2,1.5-2.8,3-3.2,4.9c-0.5,2.4,0.8,4.7,2,6.8c19.2,34.1,25.7,73.8,28.2,112.8c0.6,10,1,20,0.8,30
		c-0.2,10.1-0.9,20.1-2.3,30.1c-1.5,9.8-3.7,19.5-6.9,28.8c-3.2,9.3-7.5,18.2-13,26.3c-2.5,3.7-5.8,6.6-9,9.7
		c-3.4,3.4-6.8,6.7-10.3,10.1c20.8-46.5,13-104.5-19.3-143.8c19.2-13.2,29.1-38.7,23.7-61.4c-5.4-22.7-25.6-41.1-48.7-44.2
		c-23.1-3.2-47.5,9.1-58.8,29.5c-11.1-20.4-35.4-32.8-58.5-29.8c-23.1,3-43.4,21.2-49,43.8C193.2,364.3,202.7,389.8,221.7,403.1z"/>
	<path class="st3" d="M254.8,339.9c0.5,0,1,0,1.5,0.1c4.2,0.5,8.1,3.2,10.2,6.9c1.4,2.6,1.9,5.6,1.5,8.4c-0.9,6-6.1,10.9-12.2,11.4
		c-3.7,0.3-7.5-1-10.3-3.5c-2.7-2.5-4.3-6.3-4.2-10c0-1.7,0.4-3.3,1-4.9c1.1-2.7,3.1-5.1,5.6-6.6
		C249.9,340.6,252.3,339.9,254.8,339.9z"/>
	<path class="st4" d="M356.8,366.9c-0.1,0-0.1,0-0.2,0c-1.6-0.1-3.2-0.4-4.7-1.1c-5.1-2.3-8.3-8.1-7.7-13.6
		c0.6-5.5,5.1-10.4,10.6-11.5s11.5,1.6,14.3,6.5c2.4,4.2,2.1,9.6-0.3,13.7C366.2,364.8,361.5,367.1,356.8,366.9z"/>
	<path class="st5" d="M303,360.5c5.5,0,11,0,16.5,0.1c0.7,0,1.5,0,2,0.6c0.6,0.7,0.4,1.7,0.1,2.6c-0.5,1.3-1.3,2.6-2,3.8
		c-2.4,4-4.8,7.9-7.2,11.9c-1.2,2-2.5,4-3.7,6c-0.7,1.2-1.7,3.7-3.6,2.8c-0.8-0.4-1.3-1.2-1.7-2c-4.1-7.1-8.3-14.1-12.6-21.1
		c-0.7-1.1-1.3-2.4-0.7-3.5c0.6-1.1,2.1-1.2,3.3-1.2C296.5,360.5,299.7,360.5,303,360.5z"/>
	<path class="st6" d="M328.1,483.9c0-0.1,0-0.3,0-0.4c0-2.7,0.4-5.4,1.8-7.7c1-1.6,2.8-2.9,4.6-2.7c1.2,0.2,2.2,1,2.9,2
		s1.1,2.1,1.4,3.3c1.4,4.6,2.1,9.6,1.3,14.4c-0.4,2-0.8,4.5-2.7,5.7c-1.5,1-3.7,1-5.1-0.2c-0.9-0.8-1.4-1.9-1.9-2.9
		C328.9,491.7,328.1,487.8,328.1,483.9z"/>
	<path class="st7" d="M281.1,485c0,2.6-0.4,5.2-1.2,7.7c-1,3.1-3.8,8.9-8,5.8c-1.4-1-2-2.8-2.4-4.5c-1.2-5.7-0.6-11.7,1.6-17.1
		c0.7-1.8,1.9-3.7,3.8-4c1.4-0.3,2.9,0.5,3.8,1.6c0.9,1.1,1.4,2.5,1.7,3.9C280.9,480.6,281.1,482.8,281.1,485z"/>
	<path class="st7" d="M299.4,456.6c0-3.1,0.4-6.3,1.4-9.3c0.3-1,0.7-2,1.4-2.9c0.7-0.8,1.6-1.5,2.7-1.6c1.4-0.1,2.7,0.8,3.6,1.9
		c1.6,1.9,2.4,4.5,2.8,7c0.6,3.6,0.4,7.3-0.5,10.8c-0.7,2.7-2,7.4-5.7,6.8c-1.4-0.2-2.6-1.2-3.4-2.4s-1.2-2.6-1.5-4
		C299.7,460.8,299.4,458.7,299.4,456.6z"/>
	<path class="st8" d="M311.2,523.8c0,0.9-0.1,1.9-0.2,2.8c-0.3,3-1.6,10.5-5.7,10.4c-1.3,0-2.6-0.8-3.4-1.9
		c-0.8-1.1-1.3-2.3-1.6-3.6c-1-3.4-1.3-7-1-10.6c0.2-2.8,0.8-5.7,2.4-8.1c0.9-1.4,2.5-2.8,4.2-2.4c1.5,0.3,2.4,1.7,3,3.1
		C310.5,516.7,311.2,520.3,311.2,523.8z"/>
	<path class="st9" d="M255.9,516.1c0.4,5-0.7,10.7-4.6,13.6c-1,0.8-2.4,1.2-3.6,0.7c-1.3-0.5-2.1-1.8-2.5-3.2
		c-1.1-3.4-0.7-7.1,0.2-10.6c0.6-2.4,1.5-4.9,3.1-6.8c0.9-1.1,2.3-2,3.7-1.7c1.6,0.3,2.5,2.1,2.9,3.7
		C255.6,513.1,255.8,514.5,255.9,516.1z"/>
	<path class="st10" d="M390.5,482.9c0,3-1,7.4-4.9,5.6c-1.2-0.6-2.2-1.6-2.9-2.8c-2.6-3.9-3.7-8.7-3.9-13.4c0-1.2,0-2.3,0.4-3.4
		c0.4-1.1,1.2-2.1,2.4-2.4c1.3-0.4,2.8,0.3,3.8,1.2c1.6,1.4,2.6,3.4,3.3,5.3c1.1,3,1.7,6.2,1.8,9.4
		C390.5,482.5,390.5,482.7,390.5,482.9z"/>
	<path class="st7" d="M346.2,444.6c-0.1-1.6,0.1-3.3,0.8-4.7c0.8-1.7,2.6-3.2,4.4-2.7c1.1,0.3,1.9,1.3,2.5,2.3
		c1.7,2.7,3,5.8,3.6,8.9c0.6,2.8,0.8,13.3-4.8,10.9c-1.2-0.5-2.1-1.6-2.8-2.7c-2-3.2-3.2-6.9-3.6-10.6
		C346.3,445.6,346.3,445.1,346.2,444.6z"/>
	<path class="st11" d="M251.7,453.2c0-2.2,0.4-4.5,0.9-6.7c0.6-2.5,1.5-5.1,3-7.1c1-1.4,2.7-2.7,4.4-2.3c1.9,0.5,2.8,2.7,3,4.7
		c0.7,5.4-0.6,12.9-5.2,16.6c-0.8,0.7-1.9,1.1-3,0.9c-1.9-0.4-2.9-2.6-3.1-4.5C251.7,454.2,251.7,453.7,251.7,453.2z"/>
	<path class="st12" d="M354.5,516.3c0-0.9,0-1.8,0.1-2.7c0.1-1.2,0.3-2.3,0.9-3.3c0.6-1,1.6-1.8,2.7-1.9c1.2-0.1,2.4,0.7,3.2,1.6
		c1.7,1.8,2.6,4.3,3.2,6.7c0.8,3,1.4,6.3,0.6,9.4c-0.6,2.4-2.4,5.9-5.4,4.5c-1.4-0.7-2.4-2.1-3-3.6
		C355.3,523.7,354.5,520,354.5,516.3z"/>
	<path class="st13" d="M222.1,480.4c0.1-4.3,1.4-8.6,3.9-12.1c0.8-1.2,1.9-2.4,3.3-2.5c1.1-0.1,2.3,0.5,3,1.4c0.7,0.9,1.1,2,1.3,3.1
		c0.6,3.2,0,6.4-1,9.4c-0.9,2.6-2,5.7-4.2,7.5c-0.8,0.6-1.7,1-2.7,0.8c-1.1-0.2-1.9-1.1-2.5-2.1c-0.8-1.5-1-3.2-1-4.9
		C222.1,480.9,222.1,480.6,222.1,480.4z"/>
</g>
</svg>
