<?xml version="1.0" encoding="utf-8"?>
<!-- Generator: Adobe Illustrator 19.0.0, SVG Export Plug-In . SVG Version: 6.00 Build 0)  -->
<svg version="1.1" id="Layer_1" xmlns="http://www.w3.org/2000/svg" xmlns:xlink="http://www.w3.org/1999/xlink" x="0px" y="0px"
	 viewBox="0 0 612 792" style="enable-background:new 0 0 612 792;" xml:space="preserve">
<style type="text/css">
	.st0{fill:#050505;}
	.st1{fill:#824328;}
	.st2{fill:#F0C196;}
	.st3{fill:#7C3F23;}
	.st4{fill:#7B3F23;}
	.st5{fill:#FFFFFF;}
	.st6{fill:#080707;}
	.st7{fill:#DFB0D1;}
	.st8{fill:#030303;}
	.st9{fill:#E6A56C;}
	.st10{fill:#040404;}
</style>
<g>
	<path class="st0" d="M406.5,251.3c0.3,8.3-2.5,16.6-8.4,22.4c31.8,44.5,42.6,100.6,47.4,155.2c1.8,20,2.8,40.4-1.2,60.1
		c-3.5,17.1-11.1,32.6-23.2,45.2c-11.4,11.9-25.7,20.9-40.9,26.9c-4,1.6-8,2.9-12.2,4.1c-31.4,8.9-64.7,7.1-97.2,3.4
		c-22.4-2.5-45.7-6.3-64.3-19c-19.9-13.6-32.4-36.3-37.8-59.8c-5.5-23.5-4.7-48-2.8-72.1c3.8-47,12.3-95,36.8-135.3
		c-10.5-7.6-16.5-21.2-14.2-34c2.3-12.7,13.2-23.6,26-25.3c12.8-1.6,26.4,6.7,30.2,19.1c33.2-12.8,70.8-13.9,104.7-3.1
		c7.5-16,30.6-22,45-11.7C402.1,232.8,406.2,242,406.5,251.3z"/>
	<path class="st1" d="M403,544c12.5-30.1,16.1-67.2-3.2-93.4c-11-14.9-28.2-24.4-46.2-29.1c-17.9-4.7-36.7-5-55.3-4.5
		c-26.3,0.7-55,4.2-73.5,23c-13.4,13.7-19,33.6-18.9,52.8c0.1,19.2,5.2,38,10.6,56.4c-18.7-9-32.2-26.9-39.3-46.4
		c-7.2-19.5-8.6-40.7-8.3-61.5c0.5-27.4,4.1-54.8,9.8-81.6c4.7-22.3,10.9-44.5,21.8-64.5s26.8-37.8,47.2-48
		c21.9-10.9,47.5-12.1,71.8-9.4c13.6,1.5,27.1,4.3,39.5,10.1c18.1,8.5,32.7,23.4,43.3,40.3c10.6,16.9,17.6,35.9,23.1,55.1
		c8.9,30.7,14.4,62.4,16.4,94.4c1.3,20.1,1.1,40.8-5.1,60.2c-5.4,16.9-16,32-29.8,43C405.7,542,404.4,543,403,544z"/>
	<path class="st2" d="M331.5,566.2c-17.4,1.2-35,0.4-52.4-1.2c-17.4-1.6-35-4.1-51.3-10.5c-1.6-0.6-3.2-1.3-4.3-2.6
		c-1.1-1.2-1.6-2.7-2-4.3c-5.7-17.9-10.9-36.2-10.9-54.9c0-18.7,5.9-38.2,19.6-51c14.8-13.8,36.2-17.7,56.4-19.4
		c20.8-1.7,41.9-1.5,62.1,3.3c19,4.5,37.7,13.7,48.9,29.7c7.3,10.5,10.8,23.2,11.4,35.9c0.5,11.3-1.2,22.5-4,33.4
		c-2.2,8.5-5.1,18.6-12,24.5c-2.9,2.5-6.4,4.1-9.9,5.5C366.6,561.6,349.2,564.9,331.5,566.2z"/>
	<path class="st3" d="M200.7,253.6c0.1,3.1,1.5,6,3.3,8.6c2,3,4.4,5.7,6,8.8c0.1,0.2,0.2,0.4,0.2,0.6c0,0.3-0.2,0.6-0.4,0.9
		c-1.2,1.6-2.5,3.2-3.7,4.8c-0.2,0.3-0.4,0.5-0.8,0.6c-0.3,0-0.6-0.1-0.8-0.2c-2-1.2-3.6-2.9-5-4.8c-6.3-8.7-7.9-20.5-4.3-30.5
		c1.4-3.9,3.7-7.7,7-10.2c3.4-2.5,7.7-3.7,11.9-3.9c5.6-0.3,11.4,0.9,16.3,3.7c2.8,1.7,5.3,3.9,7.2,6.5c1,1.3,1.8,2.8,2.4,4.3
		c0.2,0.5,0.9,1.6,0.7,2.1c-0.2,0.7-1.7,1.2-2.2,1.4c-0.2,0.1-0.5,0.2-0.8,0.1c-0.5-0.1-0.8-0.6-1.1-1c-2.4-4.1-6.1-7.6-10.7-8.9
		c-6.5-1.8-13.6,0.9-18.8,5.2c-3.3,2.7-6.2,6.2-6.6,10.5C200.7,252.7,200.6,253.1,200.7,253.6z"/>
	<path class="st4" d="M376.6,226.9c1.5,0,3,0.1,4.4,0.3c4.9,0.6,9.7,2.4,13.4,5.6c4.5,3.9,7.1,9.8,7.5,15.7c0.6,7-1.3,15.4-6,20.8
		c-0.2,0.2-0.5,0.5-0.8,0.5c-0.2,0-0.4-0.2-0.6-0.4c-1.4-1.5-2.8-3.1-4.2-4.6c-0.3-0.3-0.5-0.6-0.6-1c0-0.4,0.1-0.7,0.3-1
		c1.7-3.1,4.3-5.7,5.1-9c0.8-3.4-0.4-7.1-2.6-9.8c-2.2-2.7-5.2-4.7-8.2-6.4c-4.4-2.5-9.4-4.5-14.3-3.7c-4,0.7-7.5,3.4-9.2,7.1
		c-0.2,0.5-0.5,1-1,1.1c-0.3,0-0.5,0-0.8-0.1c-1.3-0.5-2.6-1-3.8-1.4c-0.2-0.1-0.3-0.1-0.4-0.3c-0.1-0.2,0-0.4,0.1-0.6
		c2.4-4.4,6.2-8.1,10.8-10.2C369.1,227.7,372.8,227,376.6,226.9z"/>
	<path class="st5" d="M204.1,253.4c0-2.5,1.3-4.9,3-6.8c2.4-2.7,5.5-4.8,8.9-6.1c2.4-1,5.1-1.6,7.7-1.1c2.4,0.4,4.5,1.7,6.3,3.3
		c1.5,1.3,2.9,2.9,3.8,4.6c1.3,2.5-1.7,3.6-3.4,4.9c-2,1.6-4,3.3-6,5c-3.8,3.4-7.5,7-10.9,10.8c-0.1,0.2-0.3,0.3-0.5,0.4
		c-0.4,0.1-0.7-0.3-0.9-0.6c-1.7-2.5-3.3-4.9-5-7.4c-1.4-2.1-2.9-4.3-3-6.8C204.1,253.5,204.1,253.4,204.1,253.4z"/>
	<path class="st5" d="M387,260.9c-0.3,0-0.5-0.2-0.8-0.4c-1.3-1.1-2.5-2.2-3.8-3.4c-5.4-5-11.5-9.1-18.1-12.4
		c-0.4-0.2-0.8-0.4-0.9-0.8c0-0.2,0.1-0.5,0.2-0.7c1.7-3.7,5.5-6.5,9.6-6.3c2.6,0.1,5,1.4,7.3,2.7c3,1.6,6,3.3,8.5,5.6
		c1.3,1.2,2.4,2.6,2.9,4.3c1.1,4.1-2.1,7.8-4.1,10.9c-0.1,0.2-0.3,0.4-0.5,0.5C387.2,260.9,387.1,260.9,387,260.9z"/>
	<path class="st6" d="M305.8,390.3c-1.4,0-2.8-0.1-4.2-0.2c-9.2-0.7-18.5-3.6-25.2-10s-10-16.6-6.5-25.2c2-5,6.2-9,10.7-11.9
		c12.2-7.8,28.1-8.7,41.8-4c7.5,2.6,14.8,7.1,18.5,14.1c3.3,6.3,3.2,14.5-0.4,20.7c-3.5,6.1-10.2,10.7-16.6,13.2
		C318.2,389.4,312,390.4,305.8,390.3z"/>
	<path class="st7" d="M374.8,359.6c-3.2,0.6-6.5,0.1-9.5-1.1c-1.7-0.6-3.3-1.5-4.6-2.8c-1.3-1.3-2.1-3.1-2-4.9
		c0.2-2.9,2.7-5.1,5.4-6.3c4.1-1.9,8.9-2.2,13.2-0.9c2.1,0.7,4.2,1.8,5.5,3.5c4.3,5.6-2.1,11.1-7.3,12.3
		C375.3,359.5,375.1,359.5,374.8,359.6z"/>
	<path class="st7" d="M241.4,356.9c-1.8,0.2-3.6,0.2-5.4,0c-2.7-0.3-5.5-1.1-7.6-2.8c-2.1-1.8-3.4-4.7-2.5-7.3
		c0.7-2,2.4-3.5,4.3-4.5c4.7-2.5,10.5-2.7,15.4-0.6c1.8,0.8,3.4,1.9,4.5,3.5c3.1,4.6-1.3,9.5-5.6,11.1
		C243.5,356.5,242.4,356.8,241.4,356.9z"/>
	<path class="st8" d="M360,317.2c-0.4,4.3-4.1,8.2-9.1,7.6c-3.4-0.4-6.4-3.2-7-6.6c-0.6-3.4,1.1-7.1,4.1-8.7c3-1.6,7.1-1.1,9.6,1.2
		C359.5,312.6,360.3,314.9,360,317.2z"/>
	<path class="st8" d="M249.5,324.9c-0.2,0-0.4,0-0.7,0c-3.4-0.3-6.5-3-7.2-6.4s0.9-7.1,3.8-8.9s7-1.4,9.6,0.9
		C260.7,315.5,256.8,325,249.5,324.9z"/>
	<path class="st9" d="M306,387.5c-7.3,0-14.6-1.6-21.1-4.9c-6.9-3.6-13-9.7-13.9-17.4c-0.6-5.6,1.7-11.2,5.5-15.3
		c3.8-4.1,8.9-6.8,14.2-8.5c10.3-3.3,21.8-3.1,32,0.7c5.7,2.1,11.1,5.4,14.6,10.4c6.9,10,1.9,22.1-7.5,28.4
		c-4.1,2.7-8.8,4.4-13.6,5.5C312.9,387.1,309.5,387.5,306,387.5z"/>
	<path class="st10" d="M307.4,374.8c-1.6,1.6-3.3,3.2-5.2,4.4c-2,1.2-4.3,2.1-6.6,1.9c-2.5-0.2-4.9-1.6-6.6-3.4s-2.9-4.2-3.8-6.6
		c-0.3-0.7-0.5-1.7,0.2-2.2c0.5-0.4,1.3-0.2,1.7,0.2s0.7,1.1,0.9,1.6c0.8,2,2.1,3.8,3.6,5.3c1,0.9,2.1,1.8,3.4,2.1
		c2.5,0.5,4.8-1,6.9-2.4c1.3-0.9,2.6-1.8,3.3-3.2c0.5-1.1,0.5-2.4,0.5-3.7c-0.1-1.7-0.3-3.3-0.5-5c0-0.3-0.1-0.6-0.3-0.8
		c-0.3-0.5-1-0.6-1.5-0.6c-3.3-0.4-6.4-1.9-8.8-4c-1.2-1.1-2.4-2.6-2.2-4.2c0.1-1.1,0.9-2.1,1.8-2.7c0.9-0.6,2-0.9,3.1-1.2
		c6.6-1.6,13.6-1.3,20,0.9c0.8,0.3,1.6,0.6,1.9,1.4c0.2,0.6,0,1.3-0.3,1.8c-1.7,3.8-5.7,6-9.6,7.6c-0.6,0.3-1.3,0.6-1.5,1.2
		c-0.1,0.4-0.1,0.7-0.1,1.1c0.1,1,0.1,1.9,0.2,2.9c0.1,1.7,0.3,3.4,1.1,4.8c0.8,1.4,2.2,2.5,3.6,3.2c3.2,1.7,7.5,2.3,10.4,0
		c1.7-1.3,2.7-3.4,3.7-5.3c0.2-0.5,0.5-1,1-1.2c0.8-0.3,1.7,0.5,1.9,1.3c1,5-6.8,9.1-10.7,9.4c-4.3,0.4-8.7-1.5-11.4-4.8
		C307.5,374.7,307.4,374.7,307.4,374.8z"/>
</g>
</svg>
