<?xml version="1.0" encoding="utf-8"?>
<!-- Generator: Adobe Illustrator 19.0.0, SVG Export Plug-In . SVG Version: 6.00 Build 0)  -->
<svg version="1.1" id="Layer_1" xmlns="http://www.w3.org/2000/svg" xmlns:xlink="http://www.w3.org/1999/xlink" x="0px" y="0px"
	 viewBox="0 0 612 792" style="enable-background:new 0 0 612 792;" xml:space="preserve">
<style type="text/css">
	.st0{fill:#030303;}
	.st1{fill:#B2B0A6;}
	.st2{fill:#DFD7CD;}
	.st3{fill:#DFD8CD;}
	.st4{fill:#DED8CF;}
	.st5{fill:#040404;}
	.st6{fill:#F5C4DB;}
	.st7{fill:#F3C2DB;}
	.st8{fill:#050505;}
	.st9{fill:#FFFFFF;}
</style>
<g>
	<path class="st0" d="M439.1,519.5c-9.2,0.2-17.4-7.1-20.9-15.7c-8.7,16.6-24.2,28.8-41.3,36.4c-17.1,7.6-35.8,10.8-54.4,12.8
		c-23.1,2.4-46.7,2.9-69.5-1.8c-22.8-4.7-44.9-14.7-61.3-31.2c-4.9,5.2-10.1,10.6-16.8,12.8c-6.8,2.2-15.6,0-18.3-6.5
		c-2.1-5-0.1-10.7,1.8-15.9c2.8-7.6,5.5-15.4,7.2-23.3c4.2-20.3,1.6-41.3,1.8-62c0.2-24.2,4.4-48.2,9.7-71.8
		c4.5-19.9,10-39.8,19.4-58c9.4-18.2,22.9-34.6,40.7-44.7c15.3-8.7,33-12.2,50.5-13.3c21.4-1.3,43.4,1.3,62.4,11.1
		c18.1,9.4,32.5,25,42.9,42.6c10.4,17.6,16.9,37.2,22.1,56.9c6.3,24.2,10.7,49,13,73.9c0.4,3.9,0.7,7.8,1.8,11.5
		c1.5,4.9,4.5,9.2,7,13.7c7.2,12.7,11,26.9,14.2,41.1c2.4,10.7,5.9,24.5-6.8,30.1c-1.5,0.7-3.1,1.1-4.8,1.2
		C439.5,519.5,439.3,519.5,439.1,519.5z"/>
	<path class="st1" d="M298.4,241.9c14,0,28.1,1.7,41,6.8c20.1,8,36.3,23.8,47.7,42.1s18.4,39,23.8,59.9c3.9,15.1,7.1,30.5,9.5,45.9
		c1.2,7.7,2.2,15.5,3,23.2c0.4,3.9,0.8,7.8,1.1,11.7c0.2,3-0.2,5.8-0.1,8.7c0.1,6.2,1.2,12.3,0.8,18.5c-0.3,6.2-1.3,12.3-2.8,18.3
		c-3,12-8.3,23.4-15.6,33.3c-2.2,3.1-4.7,6-7.3,8.8c-1.3,1.4-2.7,2.8-4.2,4.2c-0.8,0.8-3.9,2.6-4.2,3.7c6.9-25.2,13.5-53.2,1.9-76.7
		c-8.5-17.4-26-29.2-44.6-34.8s-38.3-5.9-57.7-5.3c-22.3,0.7-46,3-63.5,16.9c-14.9,11.8-22.9,30.9-24,49.9
		c-1.1,19,4.2,37.9,12.2,55.1c-18.7-10-31.5-28.8-37.8-48.9s-6.8-41.7-5.5-62.8c1.5-26,5.6-51.8,12.1-77c4.7-18.1,10.6-36,20.1-52.1
		s22.8-30.3,39.4-38.7c14.8-7.5,31.6-10.1,48.1-10.7C294.2,242,296.3,241.9,298.4,241.9z"/>
	<path class="st2" d="M324.4,548.1c-31.4,3.7-63.8,2.2-93.6-8.4c-2.6-0.9-5.3-2-7.4-3.9c-2-1.8-3.3-4.3-4.5-6.7
		c-8.5-17.4-13.5-36.9-11.2-56c2.3-19.2,12.6-37.9,29.2-47.6c13.7-8,30.1-9.4,46-10.4c15.5-0.9,31.1-1.6,46.5,0.5
		s30.7,7.2,42.9,16.7c9.8,7.6,17.6,18.2,20.9,30.3c3.6,13.4,2.3,28.5-0.5,41.9c-1.4,6.6-3.3,13-5.7,19.2c-0.9,2.2-1.8,4.4-3.4,6.2
		c-2,2.4-4.9,3.8-7.8,5.1c-14.9,6.7-31,10.2-47.2,12.4C327.4,547.7,325.9,547.9,324.4,548.1z"/>
	<path class="st3" d="M448.9,502c0,2.3-0.3,4.5-1.1,6.6c-1.1,3-3.5,5.7-6.6,6.5c-3.5,0.9-7.2-0.9-10.1-3.2
		c-4.3-3.5-7.4-8.2-10.2-12.9c-0.3-0.5-0.6-1-0.7-1.6c-0.1-0.8,0.2-1.6,0.5-2.3c6.8-16.3,8.2-34.3,8.2-51.9c3,2.9,4.9,6.7,6.5,10.6
		c3.7,9,6.6,18.4,9,27.9C446.2,487.7,448.9,495.1,448.9,502z"/>
	<path class="st4" d="M168.5,529.1c-2.7,0.1-5.5-1.1-7-3.3c-1.2-1.9-1.3-4.3-0.8-6.5c0.5-2.2,1.5-4.2,2.4-6.3
		c4-9.4,5.1-19.8,7.2-29.8c0.4-1.9,0.8-3.9,1.9-5.6c-0.5,0.9,1.4,5.5,1.7,6.5c0.7,2.4,1.5,4.8,2.4,7.2c1.8,4.7,4,9.3,6.5,13.7
		c1.3,2.2,2.6,4.3,4,6.4c0.5,0.8,2.1,2.2,2.2,3.1c0.2,1.1-0.8,1.9-1.5,2.8c-3.2,3.7-7,6.9-11.3,9.2
		C173.8,527.9,171.2,529,168.5,529.1z"/>
	<path class="st5" d="M299.3,392.6c-1.3,0-2.6-0.1-3.9-0.2c-8.4-0.8-16.8-3.7-23.1-9.4c-6.3-5.7-10.2-14.2-9.1-22.6
		c0.8-6.6,4.6-12.7,9.7-17c5.1-4.3,11.5-6.9,18.1-8.2c10.2-2.1,21.4-0.9,30.3,4.5c8.1,5,14.2,14.1,14.5,23.8
		c0.3,9.6-6.7,18.8-14.6,23.6C314.6,391,306.9,392.7,299.3,392.6z"/>
	<path class="st6" d="M236.1,356.7c-2.9,0-5.7-0.5-8.1-2c-2.9-1.8-5-5.2-4.4-8.6c0.4-2.3,1.9-4.4,3.8-5.7c2-1.3,4.3-2,6.6-2.4
		c3.5-0.5,7.2-0.2,10.2,1.5c5.8,3.3,6.7,11.2,0.9,14.9c-2.2,1.4-4.8,2-7.3,2.2C237.3,356.6,236.7,356.6,236.1,356.7z"/>
	<path class="st7" d="M359.8,358.4c-0.5,0-1,0-1.5-0.1c-2.8-0.3-5.6-1-7.8-2.7c-2.2-1.7-3.8-4.4-3.7-7.2c0.2-2.5,1.8-4.9,3.9-6.3
		c2.1-1.5,4.6-2.1,7.2-2.5c3.4-0.4,7-0.2,10,1.5c6.4,3.7,5.8,12.3-0.6,15.6C364.9,358.1,362.3,358.5,359.8,358.4z"/>
	<path class="st8" d="M341.5,309.4c0.1,0,0.2,0,0.3,0c2.1,0,4.3,0.6,6,2c5,4.2,0.5,12.3-4.9,13.4c-3.6,0.8-7.6-1.1-9.1-4.5
		c-1.5-3.3-0.3-7.7,2.8-9.7C338,309.8,339.8,309.4,341.5,309.4z"/>
	<path class="st0" d="M248.1,324.6c-0.4,0-0.9,0-1.3-0.1c-2.1-0.3-4.1-1.1-5.4-2.8c-1.7-2-1.9-5-1-7.5c1-3,3.8-5.4,6.9-5.6
		c2.4-0.1,4.8,1.2,6.3,3.1c2.7,3.5,3,9.1-1.1,11.6C251.1,324.2,249.6,324.6,248.1,324.6z"/>
	<path class="st8" d="M235,378.1c-0.3,1-1.4,2.1-2.1,2.3c-6.4,2.4-12.8,4.8-19.3,7.3c-0.7,0.2-1.3,0.5-2,0.5c-0.7,0-1.5-0.4-1.7-1
		c-0.3-0.7,0-1.5,0.6-2s1.3-0.8,2-1.1c6.6-2.4,13.1-4.9,19.7-7.3c0.7-0.3,1.4-0.5,2.1-0.3C235,376.8,235.2,377.4,235,378.1z"/>
	<path class="st8" d="M233.4,371.9c-0.2,0-0.4-0.1-0.6-0.1c-6.7-1.1-13.4-2.3-20.1-3.4c-0.8-0.1-1.6-0.3-2.2-0.7
		c-0.7-0.5-1.1-1.3-0.8-2.1c0.4-1.2,2.1-1.2,3.3-1c6.9,1.2,13.7,2.4,20.6,3.6c0.6,0.1,1.2,0.2,1.6,0.6c1,0.8,0.6,2.6-0.6,3
		C234.3,372,233.9,371.9,233.4,371.9z"/>
	<path class="st8" d="M361.4,376.6c0.7,0,1.3,0.2,2,0.5c6.2,2.4,12.3,4.7,18.5,7.1c1.2,0.4,4.1,3.3,1.3,3.9
		c-0.6,0.1-1.2-0.1-1.8-0.3c-6.4-2.4-12.8-4.8-19.3-7.2c-0.7-0.2-1.4-0.5-1.9-1s-0.8-1.3-0.6-1.9
		C359.9,376.9,360.6,376.6,361.4,376.6C361.3,376.6,361.4,376.6,361.4,376.6z"/>
	<path class="st8" d="M360.8,371.8c-1,0-2.1-0.3-2.3-1.2c-0.1-0.7,0.3-1.3,0.8-1.7c0.6-0.4,1.3-0.5,1.9-0.6
		c6.7-1.2,13.4-2.3,20.1-3.5c0.8-0.1,1.6-0.3,2.3,0.1c1.7,0.7,1,2.9-0.6,3.1c-7.1,1.2-14.2,2.5-21.3,3.7
		C361.5,371.8,361.2,371.8,360.8,371.8z"/>
	<path class="st9" d="M331.5,363.3c-0.3,8.4-5.8,16.5-13.8,21c-7.3,4.1-16,5.1-24.2,3.9c-6.8-1-13.6-3.6-18.7-8.2
		c-5.1-4.6-8.4-11.5-7.8-18.4c0.4-4.8,2.6-9.4,5.9-13c3.2-3.6,7.5-6.2,12-8c9.2-3.6,19.7-3.7,28.9-0.2c5,1.9,9.7,4.9,13.1,9.1
		C330.3,353.9,331.7,358.7,331.5,363.3z"/>
	<path class="st0" d="M278.5,367.2c-0.1-0.7,0-1.4,0.3-2.1c0.5-1,1.9-1.6,2.9-1c0.8,0.5,1,1.7,1.2,2.6c0.7,2.9,3.2,5.3,6.1,5.8
		c2.9,0.5,6.1-1,7.5-3.7c1-2,1-4.4,0.7-6.6c-0.1-0.5-0.2-1.1-0.5-1.5c-0.4-0.4-0.9-0.6-1.4-0.7c-2.4-0.6-4.8-1.2-6.8-2.6
		c-2-1.4-3.5-3.8-3.1-6.2c0.6-3.4,4.3-5.1,7.7-5.7c4.8-0.9,9.8-0.7,14.5,0.6c1.3,0.3,2.7,0.8,3.6,1.8c1.7,1.9,1.1,4.9-0.4,7
		c-1.4,2.1-3.6,3.7-6,4.4c-0.8,0.2-1.8,0.4-2.4,1.1c-0.7,0.7-0.8,1.7-0.8,2.7c0.1,3.4,2.2,6.7,5.4,8s7.2-0.1,8.7-3.1
		c0.7-1.5,1.4-3.5,3-3.4c3.6,0.2,1.6,5.3,0.5,6.8c-1.9,2.4-4.6,4.1-7.6,4.6c-4.2,0.7-8.7-1-11.4-4.3c-2.5,3.8-7.3,6-11.8,5.3
		c-4.5-0.7-8.4-4.2-9.6-8.6C278.6,368,278.5,367.6,278.5,367.2z"/>
</g>
</svg>
