<?xml version="1.0" encoding="utf-8"?>
<!-- Generator: Adobe Illustrator 19.0.0, SVG Export Plug-In . SVG Version: 6.00 Build 0)  -->
<svg version="1.1" id="Layer_1" xmlns="http://www.w3.org/2000/svg" xmlns:xlink="http://www.w3.org/1999/xlink" x="0px" y="0px"
	 viewBox="0 0 612 792" style="enable-background:new 0 0 612 792;" xml:space="preserve">
<style type="text/css">
	.st0{fill:#AC2A45;}
	.st1{fill:#F4A1B4;}
	.st2{fill:#F9EFB0;}
	.st3{fill:#FDEAAC;}
	.st4{fill:#FAEBAC;}
	.st5{fill:#F6A0B1;}
	.st6{fill:#F6A0AF;}
	.st7{fill:#F8EAAE;}
	.st8{fill:#020202;}
	.st9{fill:#040404;}
</style>
<g>
	<path class="st0" d="M311.6,577.4c-4.8,0-9.6-0.1-14.4-0.3c-22.6-0.7-45.4-2.5-67.1-9s-42.3-18-56.7-35.5
		c-20.4-24.9-25.9-58.9-26.4-91.2c-1-59.9,13.6-122.4,52.8-167.7c-4.6-7.3-9.3-14.6-13.9-21.9c-1-1.5-2-3.1-3.7-3.8
		c-1.3-0.5-2.8-0.3-4.1-0.4c-5.5-0.5-9.6-6.1-9.6-11.6c0-5.5,3.5-10.6,7.9-13.9c9-6.7,21.6-7,32.3-3.4c10.7,3.6,19.8,10.7,28.6,17.7
		c1.8,1.4,3.6,2.9,5.9,3.3c2.7,0.5,5.3-0.6,7.9-1.5c35.5-13.7,76.1-13.5,111.4,0.6c2.5,1,5.1,2.1,7.7,1.6c2.4-0.4,4.3-2,6.2-3.6
		c9.1-7.6,18.7-15,29.9-18.6c11.3-3.5,24.7-2.4,33.3,5.8c3.6,3.4,6.2,8.1,5.9,13s-3.9,9.8-8.8,10.3c-1.5,0.2-3.1-0.1-4.5,0.4
		c-2.1,0.7-3.4,2.6-4.6,4.5c-4.8,7.4-9.5,14.8-14.3,22.2c-0.2,0.2,2.7,3.9,3,4.3c1,1.5,2.1,3,3.1,4.5c2,3,4,6.1,5.8,9.2
		c3.8,6.2,7.3,12.6,10.6,19.1c6.5,13,12.1,26.5,16.6,40.3c4.5,13.8,7.9,28,10.3,42.4c2.4,14.4,3.7,28.9,3.8,43.5
		c0.2,14.5-0.8,29.1-2.9,43.5c-0.5,3.6-1.1,7.2-1.8,10.8c-0.3,1.8-0.6,3.7-1.1,5.4c-0.4,1.3-1.3,2.4-1.8,3.6
		c-2.4,6.2-4.7,12.2-8.2,17.9c-6.8,11.3-16.1,21.1-26.6,29c-9.5,7.2-20,12.9-31.1,17.2C367.3,575.1,339.4,577.5,311.6,577.4z"/>
	<path class="st1" d="M185.5,538c-6.9-6.2-12.6-13.5-17.2-21.6c-6.3-11-10.3-22.8-12.8-35.2c-1.3-6.3-2.2-12.6-2.9-18.9
		c-0.4-3.1-0.7-6.2-0.7-9.3c0-8.9,0-17.8,0-26.7c0-6.8,0.6-13.6,1.4-20.4c0.6-5.4,1.1-10.8,1.8-16.2c0.9-6.8,2.1-13.7,3.6-20.4
		c2.1-9.4,4.6-18.8,7.8-28c1.4-3.9,2.9-7.8,4.5-11.6c2.3-5.4,4.6-10.8,7.4-16c5.1-9.4,10.6-18.6,17.2-27.1c3.1-4,6.4-7.9,10.1-11.5
		c3.6-3.5,7-7.1,10.9-10.3c6.1-5,12.4-9.7,19.4-13.4c1.8-1,3.6-2,5.4-3c1.9-1.1,4-2.1,6-3c6.8-3.1,13.8-5.5,21-7.5
		c4.2-1.2,8.4-2.1,12.6-2.9c2.9-0.5,5.8-0.9,8.7-1.1c2.7-0.2,5.3-0.6,8-1c0.6-0.1,1.2-0.1,1.8-0.1c4.5-0.2,9-0.2,13.5,0.1
		c3.9,0.3,7.7,0.8,11.6,1.2c2.8,0.3,5.7,0.6,8.5,1.1c4.6,0.8,9.1,2,13.6,3.2c8,2.2,15.6,5.2,22.9,9c9.2,4.7,17.7,10.4,25.4,17.3
		c5.4,4.8,10.5,9.8,15.2,15.3c4.1,4.9,7.9,10.1,11.5,15.3c4.7,6.7,8.5,13.8,12.2,21.1c5.8,11.5,10.5,23.5,14.1,35.9
		c1.8,6.3,3.6,12.6,5.1,19c1.7,7.1,3,14.2,4.2,21.3c1.1,6.3,2,12.6,2.8,19c0.5,4,0.9,8.1,1.2,12.1c0.4,4.6,0.7,9.3,1,14
		c0.3,6.1,0.4,12.3-0.1,18.4c-0.5,7.1-1.1,14.3-2.3,21.4c-1.3,8.1-3.1,16.1-6,23.8c-3.7,9.8-8.6,19.1-15.4,27.2
		c-2.2,2.7-4.6,5.1-7.2,7.4c-1.4-2-0.9-4.2-0.7-6.3c1.1-10.5-0.3-20.7-2.5-30.9c-4-18.4-12.4-34.6-25-48.6
		c-11.6-12.8-25.2-22.7-40.9-30c-13.4-6.2-27.5-9.8-42.1-11.3c-16.3-1.6-32.2,0.3-47.9,4.8c-11.6,3.3-22.5,8-32.6,14.4
		c-12.5,7.9-23.1,17.8-31.9,29.7c-9.1,12.2-15.7,25.6-18.9,40.6c-2.2,10.4-3.4,21-2.3,31.7C186.3,532.7,186.9,535.5,185.5,538z"/>
	<path class="st2" d="M186.4,537.7c-0.5-1.3-0.6-2.7-0.8-4.1c-3-26.6,4.9-54,20.7-75.6c15.8-21.6,39.2-37.3,64.8-44.8
		c22.5-6.6,46.8-7,69.6-1.2c27,6.9,51.9,22.8,68.6,45.1c13.8,18.5,21.9,41.4,22.2,64.6c0.1,4.4,0.9,11.9-1.4,15.6
		c-2.6,4.2-8.9,7.9-12.9,10.6c-9.3,6.3-19.6,10.9-30.2,14.4c-11,3.6-22.4,6-33.8,7.7c-27.7,4.1-56,4.6-83.9,1.4
		c-27.8-3.2-56.2-10.4-78.1-27.9c-1.7-1.4-3.4-2.9-4.4-4.8C186.6,538.4,186.5,538,186.4,537.7z"/>
	<path class="st3" d="M433.1,242.8c-4,0.6-10.2-0.8-12.5-1.4c-0.4,0.8,0.2,1.7,0.9,2.1c0.7,0.5,1.6,0.7,2.2,1.3
		c1.2,1.3,0.5,3.3-0.2,4.9c-3.4,7.1-7.8,13.7-13,19.7c-0.4,0.4-0.8,0.9-1.3,0.9c-0.6,0-1.1-0.3-1.5-0.7c-5.5-4.8-11-9.6-16.5-14.4
		c-0.4-0.4-0.8-0.8-0.9-1.3c-0.2-0.8,0.4-1.5,0.9-2c4.2-4.6,8.9-8.9,13.9-12.6c3.7-2.7,7.6-5.2,12-6.5c4.4-1.4,9.2-1.6,13.4,0.2
		c2.5,1,8.2,5.3,5.6,8.5C435.5,242.2,434.4,242.6,433.1,242.8z"/>
	<path class="st4" d="M192.1,231.9c0.5,0,0.9,0.1,1.4,0.2c6.2,1,11.6,4.6,16.5,8.5c2.9,2.3,13.3,9.4,12.2,13.3
		c-0.6,2.3-6.7,5.9-8.5,7.4c-3,2.5-5.9,5.1-8.9,7.6c-0.3,0.3-0.7,0.6-1.1,0.5c-0.4,0-0.7-0.4-1-0.7c-5.5-5.9-9.9-12.6-13.2-20
		c-0.3-0.8-0.7-1.6-0.4-2.4c0.6-2.2,4.8-2.8,4-4.9c-4.5,0.4-9.1,0.8-13.6,1.2c-0.8,0.1-1.7,0.1-2.3-0.4c-1.1-0.9-0.7-2.7,0-3.9
		C180.1,233.5,186.3,231.3,192.1,231.9z"/>
	<path class="st5" d="M436.8,230.1c-0.1,0.2-0.3,0.4-0.3,0.4c-0.4-0.1-0.8-0.2-1.2-0.4c-4.8-2.5-9.9-3.3-15.3-3
		c-1.4,0.1-2.7,0.5-4,1c-5.8,2.2-11,5.4-15.8,9.3c-4.6,3.8-9,7.8-13.4,11.8c-1.5,1.4-1.7,1.4-3.3,0.4c-2.7-1.6-5.3-3.3-7.9-4.9
		c-0.6-0.4-0.6-0.8-0.2-1.3c1.6-1.8,3.6-3.3,5.5-4.7c5.3-4.2,11.1-7.6,17-10.9c4-2.3,8.1-4.2,12.5-5.7c2.5-0.8,5-1.4,7.6-1.7
		c2.4-0.3,4.8,0,7.1,1c3.7,1.7,7.2,3.8,10.2,6.5c0.5,0.4,1,1,1.4,1.5C436.7,229.6,436.7,229.9,436.8,230.1z"/>
	<path class="st6" d="M175.1,232.1c-0.2-0.5,0.1-0.7,0.4-0.9c1.1-1.2,2.2-2.4,3.5-3.5c2.3-1.9,4.6-3.6,7.2-5.1
		c3.2-1.8,6.5-2.7,10.2-2c1.2,0.2,2.4,0.2,3.6,0.5c3.1,0.6,6,1.6,8.8,3c5.7,2.9,11.4,5.8,16.6,9.5c3.7,2.7,7.3,5.4,11.2,8
		c2.4,1.6,2.2,2.6-0.3,3.8c-2.4,1.2-4.7,2.6-6.9,4.1c-0.7,0.5-1.4,0.5-2.1,0c-1-0.9-2.1-1.7-3.1-2.7c-4.3-4.1-8.8-8.1-13.6-11.6
		c-3.4-2.5-6.8-5-10.9-6.4c-7.4-2.5-14.6-2.4-21.5,1.5C177.1,230.7,176.1,231.4,175.1,232.1z"/>
	<path class="st7" d="M307,378.2c-4.8,0.1-9.7-0.2-14.4-1.4c-5.9-1.5-11.5-4.8-14.7-10c-2.8-4.6-3.5-10.4-1.9-15.5
		c1.6-5.1,5.3-9.5,10.1-12c7.1-3.8,15.7-3.3,23.8-3.1c8,0.2,16.6,0.1,23.1,4.7c12.9,9.1,8.3,29.1-5.4,34.6
		c-5.3,2.1-11.1,2.5-16.8,2.7C309.5,378.2,308.3,378.2,307,378.2z"/>
	<path class="st8" d="M244.5,327.8c3.4-0.3,7,0.9,9.4,3.5c6.7,7.1,0.6,20.2-8.9,20.4c-3.5,0.1-6.9-1.7-9-4.5s-2.8-6.6-1.9-10
		c1-4.1,4.2-7.7,8.2-8.9C242.9,328,243.7,327.9,244.5,327.8z"/>
	<path class="st8" d="M368.8,351.6c-3.7-0.1-7.3-2.1-9.4-5.2c-2.4-3.6-2.6-8.5-0.6-12.3c1.9-3.5,5.5-6,9.5-6.4s8,1.4,10.4,4.6
		c5.2,6.9,0.3,18-8.2,19.2C370,351.6,369.4,351.6,368.8,351.6z"/>
	<path class="st9" d="M322.3,362.2c-0.8,0.1-1.6-0.1-2.6-0.4c-2.9-1.1-4.6-4.7-3.5-7.6c1.1-2.9,4.7-4.6,7.6-3.5
		C330,353,327.7,361.8,322.3,362.2z"/>
	<path class="st9" d="M287.1,356c-0.1-0.9,0.1-1.7,0.4-2.6c1.2-2.8,4.9-4.2,7.7-3c6.9,3,2.2,13.7-4.6,10.7
		C288.6,360.3,287.3,358.2,287.1,356z"/>
</g>
</svg>
