<?xml version="1.0" encoding="utf-8"?>
<!-- Generator: Adobe Illustrator 19.0.0, SVG Export Plug-In . SVG Version: 6.00 Build 0)  -->
<svg version="1.1" id="Layer_1" xmlns="http://www.w3.org/2000/svg" xmlns:xlink="http://www.w3.org/1999/xlink" x="0px" y="0px"
	 viewBox="0 0 612 792" style="enable-background:new 0 0 612 792;" xml:space="preserve">
<style type="text/css">
	.st0{fill:#637432;}
	.st1{fill:#B2CE38;}
	.st2{fill:#FFFFFF;}
	.st3{fill:#EF899E;}
	.st4{fill:#EF899F;}
	.st5{fill:#080808;}
	.st6{fill:#141211;}
	.st7{fill:#0B0A0A;}
	.st8{fill:#020202;}
</style>
<g>
	<path class="st0" d="M429.5,248.2c-0.1,10.7-4.3,21.5-11.9,29.1c-0.1,0.1,10.8,15.8,11.8,17.3c3.8,6,7.3,12.2,10.6,18.5
		c6.6,12.6,12.1,25.8,16.7,39.3c9,27,13.9,55.4,14.2,83.9c0.3,27.6-1.4,56.1-13,81.6c-2.6,5.8-5.8,11.3-9.5,16.4
		c-21.1,28.7-57.9,41-93.1,46.3c-27.7,4.2-56,5.1-83.9,2.7c-36.8-3.1-75.7-13.6-99.2-41.9c-19.1-23-25-54.1-26.9-83.9
		c-3.8-61,8-125.5,46.4-173c-12.9-10.4-18.4-29.2-13.1-45s21-27.4,37.6-27.9c16.6-0.5,33,10.2,39.2,25.7c30.4-10.2,63.9-11,94.7-2.4
		c5.4-15.4,20.8-26.8,37.1-27.5c16.3-0.6,32.6,9.6,39.1,24.6C428.5,237.1,429.5,242.6,429.5,248.2z"/>
	<path class="st1" d="M151.6,439.3c0.1-56.2,13.5-114.6,50.6-156.8c-13.6-6.9-21.3-23.8-17.4-38.5s18.7-25.8,34-25.2
		s29.2,12.8,31.8,27.9c33.2-12.9,70.9-14,104.8-2.9c2-14.9,15.2-27.6,30.2-29s30.3,8.5,35.2,22.8c4.8,14.3-1.4,31.5-14.2,39.4
		c23.7,25.2,39.5,57.2,48.1,90.7c8,31.3,10.1,63.9,8.8,96.1c-0.5,13.5-2.6,27.2-7.3,39.9c-2.4,6.4-5.3,12.6-8.9,18.4
		c-1.7,2.9-3.6,5.6-5.6,8.3c-1,1.3-2,2.7-3.1,4c-0.7,0.8-3.1,2.8-3.3,3.8C444,486.6,423.6,430,381.4,399s-104.9-32.8-146.5-1
		c-18.1,13.8-31.8,33-40.6,54.1c-12.3,29.4-15.3,62.6-8.4,93.7c-27.3-26.1-34.2-66.9-34.3-104.7
		C151.6,440.5,151.6,439.9,151.6,439.3z"/>
	<path class="st2" d="M302,577.2c-1.2,0-2.4,0-3.5,0c-28.6-0.3-57.6-3.2-84.2-13.7c-7-2.8-14-6.2-18.6-12.1c-4-5.1-5.9-11.5-7-17.8
		c-3-16.3-2-33.1,1.3-49.4c5-24.8,15.4-48.8,32.4-67.5c20.9-23,51.5-37,82.5-37.6c37.4-0.8,74.2,17.7,97.6,46.9
		c16,20,25.7,44.8,28.8,70.2c0.8,6.4,1.1,12.8,1.1,19.2c-0.1,5.8,0,12.1-0.8,17.8c-1.4,11-12.6,19.3-21.5,24.1
		c-3.4,1.9-7,3.4-10.7,4.8C368.4,573.8,335,577.3,302,577.2z"/>
	<path class="st3" d="M232,302.2c1.5,0,3.1,0.1,4.6,0.3c3.5,0.6,7,1.8,9.7,4.1c8.3,7,3.4,16.7-5.5,19.9c-6.5,2.4-14,1.9-20.2-1.1
		c-3.2-1.6-6.2-4.1-7.2-7.6c-0.9-3.3,0.3-6.9,2.5-9.5c2.2-2.6,5.4-4.2,8.7-5.1C227,302.6,229.5,302.2,232,302.2z"/>
	<path class="st4" d="M374,298.8c3.2,0,6.4,0.6,9.4,2c3.9,1.9,9.2,6.9,8.7,11.7c-0.5,5-6.8,9.3-11,10.8c-4.9,1.8-10.4,1.6-15.5,0.3
		c-5.1-1.4-10.4-4.6-11.4-9.8c-0.7-3.7,1.1-7.5,3.9-9.9c2.8-2.5,6.4-3.8,10.1-4.5C370,299,372,298.8,374,298.8z"/>
	<path class="st5" d="M323.9,317c-0.1,2.1-2.3,4.7-3.6,6.2c-3.4,3.9-8.3,6.4-13.5,6.8c-7.5,0.5-15.2-3.6-18.8-10.2
		c-0.4-0.8-0.8-1.6-0.7-2.4c0.1-0.9,0.9-1.7,1.7-1.5c0.8,0.1,1.3,1,1.6,1.8c2.6,5.5,8.7,9.3,14.8,9.2c6.1-0.1,12.1-3.9,14.6-9.5
		c0.9-2,3.8-3.8,3.8-0.5C323.9,316.9,323.9,317,323.9,317z"/>
	<path class="st6" d="M374,243.2c0-4.9,2.1-9.9,5.7-13.2c5.5-4.9,14.2-5.9,20.6-2.2c14.4,8.3,9.6,31-6.9,32.8
		c-7.3,0.8-14.9-3.6-17.9-10.3C374.5,248.1,374,245.7,374,243.2z"/>
	<path class="st6" d="M214.4,230c2.7,0,5.5,0.6,7.9,1.9c14.7,7.6,10.9,30.5-5.4,33c-7.3,1.1-15-2.9-18.3-9.5
		c-3.3-6.6-1.9-15.2,3.3-20.4C205.1,231.8,209.8,230,214.4,230z"/>
	<path class="st7" d="M296.6,293.1c-0.2,0-0.5,0-0.7-0.1c-1.7-0.3-2.9-2.1-2.6-3.8c0.3-1.7,2.1-2.9,3.8-2.6
		C300.9,287.4,300.1,293.1,296.6,293.1z"/>
	<path class="st5" d="M312.7,292.7c-0.1,0-0.3,0-0.4,0c-1.6-0.2-2.9-2-2.7-3.6c0.2-1.6,1.9-2.9,3.6-2.7
		C317.1,286.9,316.3,292.8,312.7,292.7z"/>
	<path class="st2" d="M391.4,227.1c2.8,0,5.6,0.6,8,2c13.3,7.5,9.1,28.5-6.1,30.2c-6.7,0.8-13.8-3.2-16.6-9.4
		c-2.8-6.2-1.2-14.1,3.8-18.7C383.5,228.6,387.4,227.1,391.4,227.1z"/>
	<path class="st2" d="M198.1,247.1c0.1-4.1,1.8-8.2,4.7-11.1c4.8-4.7,12.8-5.9,18.8-2.8c13.5,7.1,10,28.1-5.1,30.3
		c-6.7,1-13.8-2.7-16.9-8.8C198.5,252.4,198,249.8,198.1,247.1z"/>
	<path class="st8" d="M391.9,256.6c-5.1,0.1-10.3-2.9-12.5-7.5c-2.4-5-1.2-11.6,2.8-15.5c4-3.9,10.6-4.8,15.6-2.1
		c11.1,6,8,23.3-4.5,25C392.8,256.5,392.4,256.6,391.9,256.6z"/>
	<path class="st8" d="M214.1,260.8c-5-0.1-9.8-3.2-11.9-7.7c-2.4-5.1-1.1-11.6,3-15.3c4.1-3.8,10.7-4.6,15.5-1.9
		c11,6.1,7.6,23.3-4.8,24.8C215.3,260.8,214.7,260.8,214.1,260.8z"/>
</g>
</svg>
