<?xml version="1.0" encoding="utf-8"?>
<!-- Generator: Adobe Illustrator 19.0.0, SVG Export Plug-In . SVG Version: 6.00 Build 0)  -->
<svg version="1.1" id="Layer_1" xmlns="http://www.w3.org/2000/svg" xmlns:xlink="http://www.w3.org/1999/xlink" x="0px" y="0px"
	 viewBox="0 0 612 792" style="enable-background:new 0 0 612 792;" xml:space="preserve">
<style type="text/css">
	.st0{fill:#563C22;}
	.st1{fill:#FEE05C;}
	.st2{fill:#FFFFFF;}
	.st3{fill:#A6D5E8;}
	.st4{fill:#AAD8EE;}
	.st5{fill:#020202;}
	.st6{fill:#F397B4;}
	.st7{fill:#F396B4;}
	.st8{fill:#0F0E0D;}
</style>
<g>
	<path class="st0" d="M485.9,436.2c0.2,6.8-1.9,13.6-6.6,19c-2.2,2.6-4.9,4.8-6.5,7.8c-1.8,3.5-1.9,7.6-3,11.3
		c-3.1,10.6-15.1,17.7-25.8,15.4c-3.2,28.9-20.1,55.9-44.7,71.4c-28.1,17.7-63.1,19.9-96.3,19c-40.2-1-84.1-7.6-111.4-37.1
		c-15.2-16.5-23.4-38.6-25.9-60.8c-11.4,1.2-23-7.7-24.8-19c-0.4-2.8-0.4-5.7-1.5-8.3c-1.1-2.8-3.5-4.9-5.4-7.3
		c-8.2-10.1-8.8-25.8-1.4-36.5c7.4-10.7,22.3-15.7,34.6-11.5c4.6-28.9,12.5-57.7,27.1-83.1s36.3-47.3,63.4-58.6
		c1.1-3.6-1.5-7.5-4.6-9.6c-3.1-2.2-6.9-3.3-9.9-5.6c-7.7-5.8-8.1-19-0.8-25.3c8.2-7,21.5-4,29.1,3.7s10.6,18.6,13.1,29
		c18.3-2.7,37.2-2,55.3,2.1c1.6-10,4.9-20.2,12-27.4c7.1-7.2,18.8-10.6,27.8-5.8c8.9,4.8,12,18.9,4.3,25.5
		c-3.4,2.9-8.1,3.9-12.1,6.1c-4,2.1-7.6,6.5-6.3,10.8c25.9,13.2,46.1,36.1,59.1,62.1c13,26,19.4,54.9,22.2,83.8
		c-0.2-2.2,16,0.6,17.4,1.1c5.7,2,10.9,5.6,14.8,10.2C483.4,423.7,485.7,429.9,485.9,436.2z"/>
	<path class="st1" d="M309.2,418.8c-22.3-1.7-45.1,3.3-63.8,15.7C213,455.8,195.9,495.3,193,534c-16.9-20-21.5-47.6-22.3-73.8
		c-0.8-26.4,1.6-52.9,7.2-78.8c5.4-25.1,14-49.8,28.2-71.1c14.2-21.3,34.5-39.2,58.7-47.6c0.4,5.7,2,13,7.7,13.9
		c4,0.6,7.7-2.7,8.8-6.6c1.1-3.8,0.3-8-0.6-11.8c20.5-4.4,42-3.6,62.1,2.2c-1.2,4-2.1,8.3-0.7,12.2c1.3,3.9,5.5,7.2,9.5,6.1
		c4.9-1.3,6.4-7.5,7-12.5c26.1,11.4,46.5,33.8,59.5,59.1c15.5,30.2,21.5,64.4,23,98c0.8,18.3,1.1,36.7-1.5,54.9
		c-3.3,23.4-11.7,46.6-27.5,64.1c2.2-40.8-17-82.8-50.9-105.8C345.8,426.2,327.7,420.2,309.2,418.8z"/>
	<path class="st2" d="M349,500.9c-47.3,4.3-95.5-0.5-141.8-11.3c3-7.7,6.8-15.1,11.2-22.1c0.4-0.6,0.8-1.3,1.5-1.7
		c1-0.6,2.4-0.4,3.6-0.2c52.5,10.9,107.3,13.3,159.7,1.9c1-0.2,2.1-0.4,3,0c0.9,0.4,1.5,1.3,2.1,2.2c3.5,5.7,6.7,11.7,9.4,17.9
		c1.6,3.8,1.2,4.4-2.8,5.7c-3.2,1-6.4,1.7-9.7,2.4C373.2,498.1,361.1,499.8,349,500.9z"/>
	<path class="st2" d="M407.5,529.4c0.2,3.4,0.6,6.8,0.8,10.1c0,0.8,0.1,1.7-0.4,2.3c-0.5,0.6-1.3,0.8-2.1,1
		c-68.3,15.3-139.8,11.1-208.2-3.7c-0.3-7.8,0.5-15.6,2.2-23.3c66,14.7,135.2,19.5,200.9,3.8c1.5-0.4,4.7-1,6,0.3
		c1.1,1.1,0.6,2.6,0.6,4.1C407.3,525.9,407.4,527.7,407.5,529.4z"/>
	<path class="st2" d="M362.8,443.1c-0.2,0.8-1.5,1.4-4.1,1.7c-8.9,1.2-17.8,2-26.8,2.6c-30.1,1.8-60.4-0.1-90-5.8
		c17.9-12.6,39.7-19.3,61.6-19.1c15.9,0.2,31.7,4.1,45.9,11.3c3.6,1.8,7.1,3.8,10.4,6C362,441.2,363,442.2,362.8,443.1z"/>
	<path class="st3" d="M455,412.6c3.8,0,7.7,0.9,11.1,2.6c12.7,6.2,17.9,21.8,10.7,34.1c-3,5-7.8,8.9-13.3,10.8
		c3.2,6.1,2.1,14.1-2.7,19.1c-4.8,5-12.8,6.4-19,3.5c-0.4-0.2-0.8-0.4-0.9-0.8c-0.1-0.3-0.1-0.7-0.1-1c2.4-20.9,3-42,1.7-62.9
		c0-0.7-0.1-1.5,0.3-2.1c0.3-0.4,0.8-0.7,1.3-0.9C447.5,413.3,451.3,412.5,455,412.6z"/>
	<path class="st4" d="M146.1,459.8c0-2.3,0.5-4.6,1.6-6.6c0.3-0.6,0.6-1.2,0.3-1.8c-0.2-0.4-0.6-0.6-1-0.8
		c-8.1-3.9-13.6-12.4-13.9-21.4s4.8-17.8,12.6-22.1c5.6-3.1,12.5-3.7,18.6-2c1.5,0.4,3,1,4.5,1.7c2.2,1.1,2.5,1.3,2.3,3.6
		c-0.3,4.2-0.9,8.4-1.3,12.6c-1.4,16.8-1.5,33.7-0.3,50.4c0,0.3,0,0.7-0.1,1c-0.2,0.4-0.7,0.6-1.1,0.7c-6.1,1.9-13.3,0.4-17.8-4.2
		C147.6,468,146.1,463.9,146.1,459.8z"/>
	<path class="st5" d="M269.5,380.5c-0.1,5.2-3.1,10.4-9,12.1c-5.2,1.6-11.3-0.6-14.4-5c-3.1-4.5-2.9-10.9,0.3-15.2
		c3.3-4.3,9.5-6.2,14.6-4.4C266.8,370,269.6,375.3,269.5,380.5z"/>
	<path class="st5" d="M361.9,396.1c-3.6,0-7.3-1.6-9.7-4.3c-3.6-4.1-4.2-10.5-1.5-15.2c2.7-4.7,8.7-7.3,13.9-6.1
		c11.9,2.6,13.6,19.6,2.4,24.5C365.5,395.8,363.7,396.1,361.9,396.1z"/>
	<path class="st6" d="M393.6,393.8c1.1,0,2.2,0.1,3.3,0.4c2.2,0.5,4.4,1.4,6.2,2.9c3.6,3.1,4.2,7.5,0.7,11c-2.3,2.3-5.5,3.7-8.7,3.7
		c-3.2,0.1-6.5-1.1-9-3.2c-1.2-1-2.2-2.2-2.8-3.6c-1.3-3.3,0.4-7.2,3.4-9.2C388.7,394.4,391.2,393.8,393.6,393.8z"/>
	<path class="st7" d="M220.5,406.6c-0.6,0-1.2,0-1.7-0.1c-2.8-0.3-5.7-1.3-7.7-3.3c-2-2-3.1-5.1-2.3-7.8c1-3.3,4.3-5.4,7.7-6.2
		c3.3-0.8,6.8-0.5,9.8,1c6.5,3.3,7.5,10.7,0.9,14.5C225.2,406,222.8,406.5,220.5,406.6z"/>
	<path class="st8" d="M307.6,400.2c-1.5,0-3-0.2-4.5-0.7c-3-0.9-5.7-2.9-7.4-5.6c-0.5-0.9-0.8-2.2,0-2.7c0.9-0.5,1.9,0.5,2.5,1.4
		c2.1,2.8,5.5,4.5,8.9,4.7s7-1.3,9.3-3.9c0.5-0.6,1.1-1.3,1.8-1.5c3.1-1,0.7,3.1,0,3.9c-1.5,1.8-3.6,3-5.8,3.7
		C310.9,400,309.3,400.2,307.6,400.2z"/>
</g>
</svg>
