<?xml version="1.0" encoding="utf-8"?>
<!-- Generator: Adobe Illustrator 19.0.0, SVG Export Plug-In . SVG Version: 6.00 Build 0)  -->
<svg version="1.1" id="Layer_1" xmlns="http://www.w3.org/2000/svg" xmlns:xlink="http://www.w3.org/1999/xlink" x="0px" y="0px"
	 viewBox="0 0 612 792" style="enable-background:new 0 0 612 792;" xml:space="preserve">
<style type="text/css">
	.st0{fill:#020202;}
	.st1{fill:#FFFFFF;}
	.st2{fill:#040404;}
	.st3{fill:#FDFEFF;}
	.st4{fill:#020303;}
</style>
<g>
	<path class="st0" d="M403.3,265c0.1,8.8-4.1,17.9-10.3,23.7c25.2,36.8,33.1,82.5,37.8,126.9c1.9,18.1,3.5,36.4,1.4,54.4
		c-2.1,18.1-7.9,36.1-19.4,50.2c-11.7,14.3-28.5,23.8-46.2,29.1c-17.7,5.3-36.3,6.7-54.8,7c-21.6,0.3-43.5-0.8-64.2-7.1
		s-40.2-18.2-52.5-35.9c-17.3-24.9-18.4-57.5-16.3-87.8c3.5-48.7,14.5-98.1,41.4-138.8c-13.3-9.4-13.9-32-1.1-42
		c12.7-10.1,34.6-4.3,40.6,10.8c30.2-10.5,64.1-10.2,94,1.1c4-10.5,15.4-17.5,26.6-16.4c10.1,1,19,8.6,22,18.3
		C403,260.5,403.3,262.7,403.3,265z"/>
	<path class="st1" d="M374.2,412.9c-18.8,1.2-37.8,0.8-56.6,0.4c-10.9-0.2-21.9-0.5-32.8-0.8c-33.2-0.8-67-1.7-98.2-12.8
		c2.4-19,6.4-37.9,12.1-56.2c5.1-16.5,11.6-32.7,21.1-47.1c9.5-14.4,22.3-27,37.9-34.4c12.2-5.9,25.9-8.5,39.4-9.3
		c26.3-1.6,53.8,3.9,74.5,20.2c22.6,17.9,34.9,46.7,42.5,73.8c5,17.7,8.3,36.1,10.7,54.3c0.1,1,0.2,2.1-0.3,2.9
		c-0.6,0.9-1.6,1.2-2.6,1.5C406.2,409.6,390.3,411.8,374.2,412.9z"/>
	<path class="st1" d="M328.4,551.1c-28.2,2.6-56.8,0-84-7.8c-4.2-1.2-8.5-2.6-11.6-5.6c-2.6-2.4-4.2-5.6-5.6-8.9
		c-7.2-16.4-11.1-34.6-8.2-52.3s13.1-34.6,28.8-43.1c11.6-6.3,25.1-7.7,38.3-8.8c20.5-1.6,41.5-2.6,61.4,2.6
		c13.1,3.4,25.8,9.7,35.6,19.1c4.9,4.7,9.2,10.2,12.1,16.2c3.1,6.6,3.5,15.5,3.7,22.7c0.4,14.6-2.3,29.3-8.1,42.7
		c-1.2,2.7-2.5,5.5-4.7,7.5c-2.1,2.1-4.9,3.4-7.6,4.5c-6.7,2.8-13.8,4.7-20.9,6.3C348,548.6,338.2,550.2,328.4,551.1z"/>
	<path class="st1" d="M183.4,466.5c-0.4-2.9-0.7-5.9-0.9-8.8c0-0.6,0-1.3,0.5-1.6c0.3-0.2,0.7-0.1,1.1,0c10,2.5,20.2,4.4,30.4,5.8
		c1,0.1,3.6,0.2,4.2,1.2c0.6,1-0.8,4.1-1.1,5.2c-2.8,9.7-3.6,20-2.3,30c0.1,1,0,2.4-1,2.5c-0.2,0-0.4,0-0.6-0.1
		c-7.3-2-14.4-4.8-21.1-8.2c-1.1-0.6-2.2-1.2-3.1-2.1c-1-1.1-1.5-2.6-1.9-4.1C185.7,479.9,184.3,473.2,183.4,466.5z"/>
	<path class="st1" d="M402.1,486.7c0-6.7-1-13.5-2.9-20c-0.2-0.5-0.3-1.1,0-1.6c0.3-0.4,0.9-0.5,1.4-0.6c8.1-1,16.3-1.8,24.4-2.5
		c4.1-0.3,3,4.4,2.6,7c-1.2,8-2.5,16-5,23.7c-0.1,0.4-0.3,0.9-0.6,1.2c-0.7,0.6-1.7,0.5-2.6,0.3c-4.8-0.8-9.8-0.7-14.6,0.3
		c-0.7,0.1-1.4,0.3-2-0.1c-0.9-0.5-0.9-1.7-0.8-2.7C402,490.2,402.1,488.4,402.1,486.7z"/>
	<path class="st0" d="M251.9,354.8C251.9,354.8,251.9,354.8,251.9,354.8c-5.7,0-11.3-2.4-15.3-6.4c-4-4.1-6.2-9.7-6-15.4
		c0.1-5.1,2.2-10.1,5-14.4c3.6-5.3,8.6-9.7,14.5-12.1c6-2.3,12.9-2.4,18.7,0.3c17.1,8,13.1,29.9,1.1,40.4
		C265,351.6,258.6,354.8,251.9,354.8z"/>
	<path class="st0" d="M325.8,323.2c0.1-5,1.7-10,5.1-13.7c4.3-4.8,11.1-7.1,17.6-6.5s12.5,3.8,17.1,8.4c8.8,8.6,14.5,22.3,6.5,33.3
		c-3.5,4.8-9.1,7.9-15,8.4c-7,0.5-13.9-2.6-19.3-7c-5.4-4.4-9.7-10.3-11.3-17C326,327.2,325.8,325.2,325.8,323.2z"/>
	<path class="st2" d="M307.2,353.8c1.9,0,3.8,0.3,5.6,0.5c2.8,0.4,6.1,1.5,6.7,4.2c0.4,2-0.9,3.9-2.4,5.3c-1.6,1.4-3.5,2.5-5.5,3.1
		c-0.6,0.2-1.3,0.4-1.8,0.9c-0.8,0.8-0.7,2-0.6,3.1c0.5,3,1.9,6.1,4.5,7.7c3.7,2.3,9.3,0.4,10.9-3.6c0.3-0.7,0.5-1.6,1.1-2.1
		c2.9-2.2,1.6,3.6,1.1,4.5c-1.2,2.3-3.4,4.1-5.9,4.8c-3.9,1.1-8.2-0.1-11.2-2.8c-0.3-0.3-0.7-0.6-1.1-0.6c-0.5,0-0.8,0.4-1.1,0.8
		c-2.4,2.9-6.3,4.4-10,3.9c-3.7-0.5-7.1-2.9-8.6-6.3c-0.6-1.4-1-2.9-0.5-4.4c0.1-0.3,0.3-0.6,0.5-0.8c0.6-0.4,1.5,0,1.9,0.6
		c0.4,0.6,0.4,1.4,0.6,2.1c0.9,4.3,6.2,6.9,10.3,5.3s6.1-6.9,4.4-11c-0.2-0.5-0.4-0.9-0.8-1.2c-0.5-0.4-1.2-0.6-1.8-0.7
		c-2.2-0.5-4.3-1.6-6.1-3c-1.5-1.2-2.9-2.9-2.6-4.8c0.3-1.4,1.4-2.4,2.6-3.2C300.2,354.3,303.7,353.7,307.2,353.8z"/>
	<path class="st3" d="M266.2,325c-0.2,3.6-1.7,6-4.6,7.6c-1.6,0.4-3.2,1.2-4.9,0.5c-3-0.3-4.7-2.2-5.9-4.7c-0.6-1.3-0.9-2.8-0.5-4.4
		c0.6-2.6,1.9-4.5,4.3-5.8c0.7-0.4,1.5-0.5,2.3-0.7c1.7-0.5,3.2-0.1,4.7,0.6c1.9,0.9,3.4,2.4,4.1,4.4
		C266,323.4,266.1,324.3,266.2,325z"/>
	<path class="st1" d="M348.6,332.4c-4.5,0.1-8.2-3.4-8.1-8.3c0-4.7,3.6-8.1,8.3-8c4.9,0.1,8.1,4,8.1,8.2
		C356.8,328.9,352.9,332.5,348.6,332.4z"/>
	<path class="st0" d="M263,325.5c0.1,2.2-1,4.4-3.8,5.1c-2.6,0.6-5.6-1.2-6.2-3.8c-0.6-2.6,1.2-5.6,3.8-6.2
		C260.5,319.6,262.9,322.6,263,325.5z"/>
	<path class="st4" d="M353.2,325.7c0.1,2.1-1.1,4.3-3.8,4.9c-2.6,0.7-5.6-1.1-6.3-3.8c-0.7-2.6,1.1-5.6,3.8-6.3
		C350.7,319.6,353.1,322.6,353.2,325.7z"/>
</g>
</svg>
